<svg xmlns="http://www.w3.org/2000/svg" width="64" height="64" viewBox="0 0 64 64">
    <g fill="none" fill-rule="nonzero">
        <path fill="#DD5089" d="M15 44v9.03A2.97 2.97 0 0 1 12.03 56h-.06A2.97 2.97 0 0 1 9 53.03V44"/>
        <path fill="#2A2135" d="M12.03 57C9.781 57 8 55.219 8 53.03V44a1 1 0 0 1 2 0v9.03c0 1.086.884 1.97 1.97 1.97 1.146 0 2.03-.884 2.03-1.97V44a1 1 0 0 1 2 0v9.03A3.975 3.975 0 0 1 12.03 57z"/>
        <path fill="#FC0" d="M27 44v9.03A2.97 2.97 0 0 1 24.03 56h-.06A2.97 2.97 0 0 1 21 53.03V44"/>
        <path fill="#383128" d="M24.03 57C21.781 57 20 55.219 20 53.03V44a1 1 0 0 1 2 0v9.03c0 1.086.884 1.97 1.97 1.97 1.146 0 2.03-.884 2.03-1.97V44a1 1 0 0 1 2 0v9.03A3.975 3.975 0 0 1 24.03 57z"/>
        <path fill="#FC982B" d="M21 44v16a2.97 2.97 0 0 1-2.97 2.97h-.06A2.97 2.97 0 0 1 15 60V44"/>
        <path fill="#383128" d="M18.03 63.97C15.781 63.97 14 62.189 14 60V44a1 1 0 0 1 2 0v16c0 1.086.884 1.97 1.97 1.97 1.146 0 2.03-.884 2.03-1.97V44a1 1 0 0 1 2 0v16a3.975 3.975 0 0 1-3.97 3.97z"/>
        <path fill="#DAE3E6" d="M9 38V20.904c0-3.838 1.525-7.519 4.239-10.233L17.91 6h.18l4.671 4.671A14.472 14.472 0 0 1 27 20.904V38H9z"/>
        <path fill="#232E38" d="M27 39H9a1 1 0 0 1-1-1V20.904c0-4.132 1.609-8.018 4.532-10.94l4.671-4.671A1 1 0 0 1 17.91 5h.18c.265 0 .52.105.707.293l4.671 4.671A15.37 15.37 0 0 1 28 20.904V38a1 1 0 0 1-1 1zm-17-2h16V20.904c0-3.598-1.401-6.981-3.946-9.526L18 7.324l-4.054 4.054A13.383 13.383 0 0 0 10 20.904V37z"/>
        <g>
            <path fill="#DAE3E6" d="M9 38l-5.611 3.507C2.349 42.157 1 41.409 1 40.183v-4.622a7.64 7.64 0 0 1 3.274-6.269L9 26v12z"/>
            <path fill="#232E38" d="M2.565 42.747A2.567 2.567 0 0 1 0 40.183v-4.622a8.644 8.644 0 0 1 3.702-7.089l4.727-3.292A1.002 1.002 0 0 1 10 26v12a1 1 0 0 1-.47.848l-5.611 3.507c-.41.256-.878.392-1.354.392zM8 27.915l-3.155 2.197A6.643 6.643 0 0 0 2 35.561v4.622c0 .479.517.69.859.476L8 37.446v-9.531z"/>
        </g>
        <g>
            <path fill="#DAE3E6" d="M27 38l5.611 3.507c1.04.65 2.389-.098 2.389-1.324v-4.622a7.64 7.64 0 0 0-3.274-6.269L27 26v12z"/>
            <path fill="#232E38" d="M33.435 42.747c-.476 0-.944-.135-1.354-.392l-5.611-3.507A1 1 0 0 1 26 38V26a.998.998 0 0 1 1.571-.821l4.727 3.292A8.645 8.645 0 0 1 36 35.561v4.622a2.53 2.53 0 0 1-.787 1.849 2.602 2.602 0 0 1-1.778.715zM28 37.446l5.141 3.213a.565.565 0 0 0 .691-.074.54.54 0 0 0 .168-.402v-4.622a6.644 6.644 0 0 0-2.845-5.449L28 27.915v9.531z"/>
        </g>
        <g transform="translate(12 18)">
            <circle cx="6" cy="6" r="5" fill="#81D4EF"/>
            <path fill="#232E38" d="M6 12c-3.309 0-6-2.691-6-6s2.691-6 6-6 6 2.691 6 6-2.691 6-6 6zM6 2C3.794 2 2 3.794 2 6s1.794 4 4 4 4-1.794 4-4-1.794-4-4-4z"/>
        </g>
        <g>
            <path fill="#A6ACB2" d="M9 38h18v6H9z"/>
            <path fill="#232E38" d="M27 45H9a1 1 0 0 1-1-1v-6a1 1 0 0 1 1-1h18a1 1 0 0 1 1 1v6a1 1 0 0 1-1 1zm-17-2h16v-4H10v4z"/>
        </g>
    </g>
</svg>
