<svg xmlns="http://www.w3.org/2000/svg" width="173" height="173" viewBox="0 0 173 173">
    <g fill="none" fill-rule="evenodd">
        <circle cx="51.359" cy="67.578" r="10.813" fill="#E45544" fill-rule="nonzero" opacity=".764"/>
        <path fill="#257295" fill-rule="nonzero" d="M52.71 83.797c-8.197 0-14.866-6.67-14.866-14.867 0-8.198 6.67-14.868 14.867-14.868 8.198 0 14.867 6.67 14.867 14.868 0 8.197-6.67 14.867-14.867 14.867zm0-23.788c-4.917 0-8.92 4.003-8.92 8.92 0 4.919 4.003 8.921 8.92 8.921 4.919 0 8.921-4.002 8.921-8.92s-4.002-8.92-8.92-8.92z"/>
        <circle cx="87.852" cy="87.852" r="14.867" fill="#FC0" opacity=".764"/>
        <path fill="#257295" fill-rule="nonzero" d="M87.852 105.422c-9.69 0-17.57-7.88-17.57-17.57 0-9.69 7.88-17.57 17.57-17.57 9.69 0 17.57 7.88 17.57 17.57 0 9.69-7.88 17.57-17.57 17.57zm0-29.284c-6.46 0-11.714 5.254-11.714 11.714 0 6.46 5.254 11.713 11.714 11.713 6.46 0 11.713-5.253 11.713-11.713 0-6.46-5.253-11.714-11.713-11.714zM160.281 49.992a2.886 2.886 0 0 1-2.547-1.526 81.439 81.439 0 0 0-1.341-2.408 2.884 2.884 0 1 1 4.993-2.892c.493.854.972 1.713 1.44 2.584a2.881 2.881 0 0 1-2.545 4.242zM87.367 173a2.884 2.884 0 0 1-.035-5.768 83.113 83.113 0 0 0 5.519-.245c1.592-.138 2.977 1.064 3.1 2.65a2.883 2.883 0 0 1-2.65 3.1c-1.933.15-3.918.24-5.902.263h-.032zm-8.56-.343c-.086 0-.175-.003-.262-.012a87.777 87.777 0 0 1-5.864-.735 2.885 2.885 0 0 1-2.395-3.302 2.89 2.89 0 0 1 3.303-2.394c1.815.289 3.658.52 5.476.684a2.886 2.886 0 0 1-.257 5.759zm22.767-1.018a2.886 2.886 0 0 1-2.836-2.365 2.888 2.888 0 0 1 2.32-3.357 80.54 80.54 0 0 0 5.391-1.176c1.538-.401 3.113.539 3.508 2.085a2.886 2.886 0 0 1-2.086 3.506 86.604 86.604 0 0 1-5.775 1.26c-.176.032-.349.047-.522.047zm-36.823-1.48c-.246 0-.5-.031-.75-.1-1.899-.511-3.8-1.09-5.655-1.725a2.885 2.885 0 0 1 1.87-5.456 80.78 80.78 0 0 0 5.279 1.609 2.885 2.885 0 0 1-.744 5.672zm50.6-2.275a2.884 2.884 0 0 1-.995-5.592 79.035 79.035 0 0 0 5.103-2.079 2.884 2.884 0 1 1 2.363 5.263 85.737 85.737 0 0 1-5.47 2.226 2.873 2.873 0 0 1-1 .182zm-64.023-2.59c-.407 0-.82-.086-1.212-.268a86.267 86.267 0 0 1-5.282-2.67 2.884 2.884 0 0 1-1.14-3.917 2.88 2.88 0 0 1 3.918-1.139 79.632 79.632 0 0 0 4.927 2.492 2.885 2.885 0 0 1-1.211 5.502zm76.941-3.466a2.89 2.89 0 0 1-2.5-1.44 2.887 2.887 0 0 1 1.052-3.941 80.16 80.16 0 0 0 4.68-2.922 2.884 2.884 0 1 1 3.222 4.785 86.505 86.505 0 0 1-5.011 3.129c-.456.265-.952.389-1.443.389zm-89.343-3.622c-.565 0-1.139-.167-1.638-.514a89.346 89.346 0 0 1-4.745-3.524 2.883 2.883 0 1 1 3.594-4.51 82.8 82.8 0 0 0 4.434 3.293 2.886 2.886 0 0 1 .73 4.015 2.885 2.885 0 0 1-2.375 1.24zm101.044-4.548a2.883 2.883 0 0 1-1.85-5.099 83.311 83.311 0 0 0 4.12-3.674 2.88 2.88 0 0 1 4.08.095 2.883 2.883 0 0 1-.096 4.078 85.44 85.44 0 0 1-4.41 3.934 2.877 2.877 0 0 1-1.844.666zm-112.052-4.542a2.879 2.879 0 0 1-2.019-.825 89.391 89.391 0 0 1-4.076-4.274 2.88 2.88 0 0 1 .234-4.072 2.877 2.877 0 0 1 4.073.234 82.992 82.992 0 0 0 3.81 3.994 2.885 2.885 0 0 1-2.022 4.943zm122.206-5.491a2.883 2.883 0 0 1-2.192-4.758 79.362 79.362 0 0 0 3.435-4.317 2.89 2.89 0 0 1 4.036-.6 2.883 2.883 0 0 1 .6 4.034 86.872 86.872 0 0 1-3.684 4.626 2.873 2.873 0 0 1-2.195 1.015zm-131.518-5.326a2.881 2.881 0 0 1-2.342-1.197 88.186 88.186 0 0 1-3.297-4.903 2.887 2.887 0 0 1 .92-3.974 2.891 2.891 0 0 1 3.975.92 81.765 81.765 0 0 0 3.075 4.577 2.883 2.883 0 0 1-.649 4.026 2.808 2.808 0 0 1-1.682.55zm139.826-6.279a2.885 2.885 0 0 1-2.478-4.358 81.373 81.373 0 0 0 2.657-4.841 2.887 2.887 0 0 1 3.874-1.275 2.882 2.882 0 0 1 1.275 3.873 88.967 88.967 0 0 1-2.844 5.188 2.882 2.882 0 0 1-2.484 1.413zm-147.167-5.955a2.882 2.882 0 0 1-2.594-1.618 85.623 85.623 0 0 1-2.408-5.387 2.884 2.884 0 0 1 1.583-3.757 2.882 2.882 0 0 1 3.76 1.583 80.753 80.753 0 0 0 2.25 5.03 2.88 2.88 0 0 1-1.325 3.855c-.41.2-.842.294-1.266.294zm153.387-6.898a2.887 2.887 0 0 1-2.697-3.913 80.89 80.89 0 0 0 1.79-5.229 2.88 2.88 0 0 1 3.6-1.92 2.885 2.885 0 0 1 1.922 3.599 85.355 85.355 0 0 1-1.918 5.6 2.89 2.89 0 0 1-2.697 1.863zm-158.54-6.405a2.885 2.885 0 0 1-2.769-2.08 86.72 86.72 0 0 1-1.454-5.73 2.88 2.88 0 0 1 2.207-3.428 2.879 2.879 0 0 1 3.43 2.206 80.993 80.993 0 0 0 1.359 5.346 2.888 2.888 0 0 1-1.965 3.576c-.268.073-.54.11-.807.11zm162.466-7.33a2.888 2.888 0 0 1-2.836-3.432c.35-1.8.64-3.634.868-5.451.196-1.58 1.63-2.72 3.22-2.506a2.883 2.883 0 0 1 2.507 3.218 86.974 86.974 0 0 1-.926 5.834 2.894 2.894 0 0 1-2.833 2.336zM3.32 98.766c-1.448 0-2.7-1.09-2.861-2.564-.22-1.95-.373-3.93-.456-5.889A2.881 2.881 0 0 1 2.76 87.31c1.592-.023 2.94 1.165 3.005 2.757.078 1.828.223 3.68.425 5.502a2.88 2.88 0 0 1-2.548 3.184c-.11.009-.216.015-.323.015zm166.775-7.521h-.066a2.882 2.882 0 0 1-2.819-2.948 83.455 83.455 0 0 0-.063-5.523 2.881 2.881 0 0 1 2.752-3.01c1.56-.075 2.942 1.16 3.012 2.751.057 1.315.089 2.642.089 3.971 0 .65-.006 1.295-.023 1.938a2.883 2.883 0 0 1-2.882 2.82zM2.942 84.5c-.057 0-.112 0-.167-.003A2.885 2.885 0 0 1 .06 81.452c.113-1.952.295-3.93.54-5.883.199-1.58 1.621-2.717 3.222-2.503a2.882 2.882 0 0 1 2.504 3.221 81.788 81.788 0 0 0-.502 5.494 2.892 2.892 0 0 1-2.882 2.72zm166.259-7.504a2.885 2.885 0 0 1-2.85-2.462 79.187 79.187 0 0 0-.996-5.428 2.885 2.885 0 0 1 5.637-1.234 86.432 86.432 0 0 1 1.068 5.817 2.887 2.887 0 0 1-2.86 3.307zM4.97 70.376a2.883 2.883 0 0 1-2.813-3.536c.441-1.907.96-3.827 1.534-5.708a2.9 2.9 0 0 1 3.603-1.915 2.887 2.887 0 0 1 1.916 3.602 80.079 80.079 0 0 0-1.431 5.324 2.889 2.889 0 0 1-2.81 2.232zm160.935-7.262a2.89 2.89 0 0 1-2.74-1.982 80.602 80.602 0 0 0-1.91-5.176 2.885 2.885 0 0 1 1.581-3.76 2.892 2.892 0 0 1 3.762 1.58 85.835 85.835 0 0 1 2.048 5.545 2.887 2.887 0 0 1-2.74 3.793zM9.381 56.804c-.375 0-.756-.075-1.122-.231a2.883 2.883 0 0 1-1.532-3.78 87.123 87.123 0 0 1 2.495-5.37 2.885 2.885 0 0 1 5.144 2.61 80.42 80.42 0 0 0-2.325 5.006 2.888 2.888 0 0 1-2.66 1.765zm6.672-12.626a2.884 2.884 0 0 1-2.423-4.444A86.782 86.782 0 0 1 17 34.872a2.884 2.884 0 0 1 4.627 3.443 78.939 78.939 0 0 0-3.145 4.54 2.882 2.882 0 0 1-2.429 1.323zm8.724-11.305a2.885 2.885 0 0 1-2.126-4.833 86.603 86.603 0 0 1 4.142-4.219A2.886 2.886 0 0 1 30.771 28a81.628 81.628 0 0 0-3.865 3.94c-.571.62-1.35.933-2.13.933zm10.506-9.663a2.885 2.885 0 0 1-1.768-5.165 87.158 87.158 0 0 1 4.794-3.458 2.877 2.877 0 0 1 4.001.79 2.88 2.88 0 0 1-.79 4 82.307 82.307 0 0 0-4.474 3.227 2.864 2.864 0 0 1-1.763.606zm11.989-7.743a2.882 2.882 0 0 1-1.356-5.43 84.309 84.309 0 0 1 5.308-2.59 2.885 2.885 0 0 1 2.354 5.266 80.174 80.174 0 0 0-4.953 2.416 2.901 2.901 0 0 1-1.353.338zm74.458-1.953c-.41 0-.822-.086-1.218-.27a78.868 78.868 0 0 0-5.08-2.155 2.885 2.885 0 0 1-1.658-3.726 2.888 2.888 0 0 1 3.727-1.658 86.37 86.37 0 0 1 5.446 2.313 2.883 2.883 0 1 1-1.217 5.497zM60.4 9.878a2.89 2.89 0 0 1-2.743-1.987 2.888 2.888 0 0 1 1.846-3.64 88.648 88.648 0 0 1 5.68-1.644 2.898 2.898 0 0 1 3.505 2.091 2.886 2.886 0 0 1-2.091 3.504 79.322 79.322 0 0 0-5.3 1.534c-.3.095-.6.142-.897.142zm47.916-1.255c-.248 0-.502-.032-.753-.1-1.771-.48-3.58-.9-5.374-1.255a2.88 2.88 0 0 1-2.274-3.386 2.874 2.874 0 0 1 3.387-2.272c1.924.377 3.863.83 5.76 1.343a2.883 2.883 0 0 1-.746 5.67zM74.293 6.616A2.883 2.883 0 0 1 73.881.88 88.267 88.267 0 0 1 79.76.228a2.87 2.87 0 0 1 3.095 2.656 2.884 2.884 0 0 1-2.657 3.095c-1.82.138-3.663.343-5.48.608-.148.02-.286.029-.425.029zM94.264 6.1c-.09 0-.182-.003-.271-.012a80.92 80.92 0 0 0-5.513-.323 2.882 2.882 0 0 1-2.812-2.953c.04-1.589 1.448-2.838 2.954-2.812 1.976.05 3.963.165 5.908.346a2.884 2.884 0 0 1 2.605 3.138 2.888 2.888 0 0 1-2.87 2.616zm37.706 13.09c-.539 0-1.081-.15-1.566-.465a85.56 85.56 0 0 0-2.34-1.462 2.885 2.885 0 1 1 2.978-4.943c.845.508 1.681 1.03 2.506 1.566a2.882 2.882 0 0 1 .849 3.989 2.897 2.897 0 0 1-2.427 1.315zM85.425 148.672a2.889 2.889 0 0 1-.011-5.777 56.94 56.94 0 0 0 2.726-.075 2.887 2.887 0 1 1 .292 5.769c-.991.051-1.987.077-2.992.083h-.015zm-8.511-.558c-.13 0-.263-.008-.396-.026a63.4 63.4 0 0 1-5.857-1.08 2.89 2.89 0 0 1 1.317-5.627 57.92 57.92 0 0 0 5.32.982 2.888 2.888 0 0 1 2.47 3.253 2.885 2.885 0 0 1-2.854 2.498zm-13.741-3.55a2.9 2.9 0 0 1-1.046-.196 63.87 63.87 0 0 1-5.444-2.42 2.887 2.887 0 0 1-1.285-3.877 2.885 2.885 0 0 1 3.876-1.286 57.905 57.905 0 0 0 4.944 2.199 2.888 2.888 0 0 1-1.045 5.58zM50.647 137.9a2.89 2.89 0 0 1-1.643-.514 64.569 64.569 0 0 1-4.73-3.616 2.89 2.89 0 0 1 3.719-4.42 59.187 59.187 0 0 0 4.3 3.29 2.892 2.892 0 0 1 .728 4.021 2.884 2.884 0 0 1-2.374 1.24zm-10.63-9.385c-.792 0-1.58-.323-2.152-.959a62.856 62.856 0 0 1-3.766-4.613 2.889 2.889 0 1 1 4.64-3.44 58.407 58.407 0 0 0 3.426 4.194 2.888 2.888 0 0 1-2.149 4.818zm92.561-2.68a2.884 2.884 0 0 1-1.802-.63 2.892 2.892 0 0 1-.456-4.061 57.567 57.567 0 0 0 3.18-4.388 2.89 2.89 0 0 1 4.832 3.169 64.713 64.713 0 0 1-3.495 4.824 2.881 2.881 0 0 1-2.259 1.086zM31.84 116.929a2.888 2.888 0 0 1-2.539-1.508 63.168 63.168 0 0 1-2.593-5.36 2.887 2.887 0 1 1 5.311-2.268 59.117 59.117 0 0 0 2.357 4.873 2.889 2.889 0 0 1-1.158 3.917 2.927 2.927 0 0 1-1.378.346zm108.239-3.14a2.887 2.887 0 0 1-2.61-4.116 59.228 59.228 0 0 0 2.07-5.003 2.895 2.895 0 0 1 3.693-1.742 2.888 2.888 0 0 1 1.742 3.695 63.37 63.37 0 0 1-2.276 5.502 2.9 2.9 0 0 1-2.62 1.664zM26.575 103.76a2.89 2.89 0 0 1-2.787-2.14 62.672 62.672 0 0 1-1.268-5.82 2.889 2.889 0 1 1 5.696-.966c.3 1.78.69 3.56 1.152 5.29a2.887 2.887 0 0 1-2.793 3.636zm117.989-3.431a2.889 2.889 0 0 1-2.83-3.475c.36-1.757.646-3.553.843-5.35.173-1.586 1.62-2.718 3.188-2.557a2.891 2.891 0 0 1 2.556 3.19 63.46 63.46 0 0 1-.927 5.884 2.898 2.898 0 0 1-2.83 2.308zM24.534 89.725a2.888 2.888 0 0 1-2.886-2.811 66.054 66.054 0 0 1 .11-5.948 2.896 2.896 0 0 1 3.07-2.698 2.892 2.892 0 0 1 2.697 3.071 58.653 58.653 0 0 0-.104 5.416 2.888 2.888 0 0 1-2.807 2.967c-.026.003-.052.003-.08.003zm121.249-3.53a2.889 2.889 0 0 1-2.886-2.805 57.188 57.188 0 0 0-.41-5.396 2.891 2.891 0 0 1 2.513-3.22c1.58-.171 3.024.93 3.22 2.512.24 1.965.393 3.963.45 5.94a2.886 2.886 0 0 1-2.804 2.969h-.083zM25.787 75.596a2.888 2.888 0 0 1-2.83-3.475 62.838 62.838 0 0 1 1.487-5.77 2.88 2.88 0 0 1 3.613-1.904 2.887 2.887 0 0 1 1.903 3.613 57.03 57.03 0 0 0-1.349 5.237 2.89 2.89 0 0 1-2.824 2.3zm117.93-3.431a2.89 2.89 0 0 1-2.786-2.138 57.156 57.156 0 0 0-1.655-5.15 2.886 2.886 0 0 1 1.692-3.718 2.884 2.884 0 0 1 3.717 1.693 62.646 62.646 0 0 1 1.822 5.673 2.89 2.89 0 0 1-2.036 3.542 3.086 3.086 0 0 1-.753.098zM30.29 62.14a2.889 2.889 0 0 1-2.61-4.125 62.65 62.65 0 0 1 2.795-5.26 2.883 2.883 0 0 1 3.957-1.01 2.89 2.89 0 0 1 1.01 3.957 58.518 58.518 0 0 0-2.538 4.78 2.89 2.89 0 0 1-2.614 1.658zm108.155-3.137a2.888 2.888 0 0 1-2.539-1.505 57.19 57.19 0 0 0-2.813-4.624 2.887 2.887 0 0 1 .78-4.01 2.884 2.884 0 0 1 4.009.78 63.024 63.024 0 0 1 3.093 5.09 2.887 2.887 0 0 1-2.53 4.27zM37.804 50.11c-.633 0-1.27-.208-1.805-.635a2.885 2.885 0 0 1-.448-4.058 63.548 63.548 0 0 1 3.937-4.47 2.887 2.887 0 1 1 4.15 4.019 59.044 59.044 0 0 0-3.581 4.064 2.882 2.882 0 0 1-2.253 1.08zm92.444-2.674c-.789 0-1.577-.321-2.149-.956a57.086 57.086 0 0 0-3.81-3.854 2.89 2.89 0 0 1-.167-4.081 2.886 2.886 0 0 1 4.081-.168 65.099 65.099 0 0 1 4.188 4.235 2.891 2.891 0 0 1-2.143 4.824zM47.9 40.148c-.858 0-1.71-.382-2.28-1.112a2.885 2.885 0 0 1 .503-4.053 64.122 64.122 0 0 1 4.861-3.437 2.881 2.881 0 0 1 3.988.875 2.887 2.887 0 0 1-.875 3.989 58.399 58.399 0 0 0-4.421 3.128c-.532.41-1.156.61-1.776.61zm71.69-2.08a2.862 2.862 0 0 1-1.638-.511 58.967 58.967 0 0 0-4.595-2.869 2.89 2.89 0 0 1-1.106-3.931 2.89 2.89 0 0 1 3.93-1.106 64.728 64.728 0 0 1 5.055 3.151 2.889 2.889 0 0 1-1.646 5.266zm-59.572-5.275a2.89 2.89 0 0 1-1.199-5.517 64.395 64.395 0 0 1 5.525-2.212 2.894 2.894 0 0 1 3.677 1.782 2.892 2.892 0 0 1-1.782 3.677 58.217 58.217 0 0 0-5.026 2.013 2.922 2.922 0 0 1-1.195.257zm47.038-1.366a2.89 2.89 0 0 1-1.046-.196 57.712 57.712 0 0 0-5.129-1.713 2.889 2.889 0 0 1-1.996-3.565 2.898 2.898 0 0 1 3.564-1.996 63.249 63.249 0 0 1 5.652 1.89 2.887 2.887 0 0 1-1.045 5.58zm-33.536-2.96a2.888 2.888 0 0 1-.546-5.725 63.878 63.878 0 0 1 5.891-.859 2.89 2.89 0 0 1 .566 5.748c-1.79.177-3.595.44-5.357.783a3.05 3.05 0 0 1-.554.052zm19.809-.573c-.127 0-.257-.008-.387-.026a58.338 58.338 0 0 0-5.395-.47 2.885 2.885 0 0 1-2.767-3.005c.064-1.594 1.412-2.81 3.004-2.767a63.8 63.8 0 0 1 5.929.517 2.887 2.887 0 0 1-.384 5.751zm31.205 106.26a2.888 2.888 0 0 1-1.877-5.087c.69-.59 1.369-1.196 2.03-1.817a2.891 2.891 0 0 1 4.084.127 2.892 2.892 0 0 1-.127 4.085 61.334 61.334 0 0 1-2.236 2.001 2.88 2.88 0 0 1-1.874.69zM66.208 57.463a2.898 2.898 0 0 1-2.448-1.341 2.906 2.906 0 0 1 .888-4.01 39.485 39.485 0 0 1 2.674-1.564 2.902 2.902 0 1 1 2.73 5.124c-.781.418-1.544.862-2.286 1.338a2.918 2.918 0 0 1-1.558.453zm20.244 69.584c-1.079 0-2.14-.04-3.193-.122a2.903 2.903 0 0 1-2.666-3.12 2.895 2.895 0 0 1 3.118-2.669c1.705.134 3.451.14 5.168.023a2.886 2.886 0 0 1 3.092 2.697 2.901 2.901 0 0 1-2.694 3.095c-.934.061-1.874.096-2.825.096zm10.867-1.591a2.902 2.902 0 0 1-2.775-2.07 2.902 2.902 0 0 1 1.943-3.614 34.819 34.819 0 0 0 4.814-1.852 2.91 2.91 0 0 1 3.863 1.384 2.908 2.908 0 0 1-1.383 3.867 40.631 40.631 0 0 1-5.624 2.163 3.018 3.018 0 0 1-.838.122zm-22.062-.099c-.287 0-.574-.043-.861-.13a40.358 40.358 0 0 1-5.604-2.215 2.899 2.899 0 0 1-1.348-3.876 2.895 2.895 0 0 1 3.872-1.35 34.609 34.609 0 0 0 4.802 1.896 2.906 2.906 0 0 1 1.909 3.634 2.907 2.907 0 0 1-2.77 2.041zm34.411-6.314c-.861 0-1.71-.38-2.285-1.112a2.906 2.906 0 0 1 .493-4.076 35.047 35.047 0 0 0 3.82-3.478 2.901 2.901 0 1 1 4.208 3.998 41.234 41.234 0 0 1-4.452 4.053 2.874 2.874 0 0 1-1.784.615zm-46.708-.212a2.881 2.881 0 0 1-1.807-.633 40.685 40.685 0 0 1-4.417-4.093 2.902 2.902 0 1 1 4.246-3.96 35.042 35.042 0 0 0 3.79 3.513 2.904 2.904 0 0 1-1.812 5.173zm55.9-10.236a2.906 2.906 0 0 1-2.491-4.39 34.876 34.876 0 0 0 2.304-4.624 2.902 2.902 0 0 1 3.782-1.588 2.904 2.904 0 0 1 1.587 3.786 40.686 40.686 0 0 1-2.692 5.396 2.887 2.887 0 0 1-2.49 1.42zm-64.995-.296c-.998 0-1.97-.514-2.509-1.44a40.832 40.832 0 0 1-2.64-5.42 2.905 2.905 0 0 1 1.625-3.771 2.895 2.895 0 0 1 3.767 1.626 34.95 34.95 0 0 0 2.26 4.639 2.909 2.909 0 0 1-1.041 3.971 2.92 2.92 0 0 1-1.462.395zm69.782-12.785a2.904 2.904 0 0 1-2.865-3.376 35.11 35.11 0 0 0 .464-5.148c.029-1.602 1.427-2.848 2.95-2.853a2.901 2.901 0 0 1 2.85 2.952 41.053 41.053 0 0 1-.542 5.998 2.899 2.899 0 0 1-2.857 2.427zm-.287-13.923a2.902 2.902 0 0 1-2.836-2.314 34.556 34.556 0 0 0-1.424-4.961 2.906 2.906 0 0 1 1.714-3.73 2.904 2.904 0 0 1 3.727 1.715 40.38 40.38 0 0 1 1.662 5.794 2.901 2.901 0 0 1-2.251 3.432 2.754 2.754 0 0 1-.592.064zm-5.304-12.873a2.894 2.894 0 0 1-2.43-1.318 35.286 35.286 0 0 0-3.133-4.107 2.905 2.905 0 0 1 .244-4.1 2.896 2.896 0 0 1 4.095.244 40.885 40.885 0 0 1 3.651 4.787 2.906 2.906 0 0 1-.844 4.018 2.846 2.846 0 0 1-1.583.476zm-9.615-10.067a2.89 2.89 0 0 1-1.69-.546 35.072 35.072 0 0 0-4.403-2.7 2.904 2.904 0 0 1 2.654-5.165c1.78.918 3.51 1.977 5.136 3.15 1.3.938 1.595 2.75.661 4.053a2.896 2.896 0 0 1-2.358 1.208zM76.47 52.905a2.905 2.905 0 0 1-.765-5.704 40.368 40.368 0 0 1 5.916-1.156c1.587-.17 3.03.95 3.222 2.54a2.905 2.905 0 0 1-2.537 3.229c-1.715.203-3.42.537-5.067.99a3.073 3.073 0 0 1-.769.101zm19.374-.156c-.238 0-.482-.03-.722-.09a35.097 35.097 0 0 0-5.079-.909 2.903 2.903 0 0 1-2.59-3.185c.163-1.593 1.555-2.78 3.182-2.592 2.001.203 3.994.56 5.928 1.057a2.905 2.905 0 0 1-.72 5.719zM49.178 95.06a2.902 2.902 0 0 1-2.863-2.462 41.148 41.148 0 0 1-.353-3.08 2.9 2.9 0 0 1 2.67-3.115c1.602-.137 2.99 1.074 3.113 2.674.066.89.168 1.77.301 2.639a2.9 2.9 0 0 1-2.868 3.344z"/>
        <circle cx="145.969" cy="27.031" r="10.813" fill="#81D4EF" fill-rule="nonzero" opacity=".764"/>
        <path fill="#257295" fill-rule="nonzero" d="M147.32 43.25c-8.197 0-14.867-6.67-14.867-14.867 0-8.198 6.67-14.867 14.867-14.867 8.198 0 14.868 6.669 14.868 14.867s-6.67 14.867-14.868 14.867zm0-23.788c-4.918 0-8.92 4.003-8.92 8.92 0 4.919 4.002 8.921 8.92 8.921s8.92-4.002 8.92-8.92-4.002-8.92-8.92-8.92z"/>
        <circle cx="108.125" cy="143.266" r="10.813" fill="#76D03B" fill-rule="nonzero" opacity=".764"/>
        <path fill="#257295" fill-rule="nonzero" d="M109.477 159.484c-8.198 0-14.868-6.669-14.868-14.867s6.67-14.867 14.868-14.867c8.197 0 14.867 6.67 14.867 14.867 0 8.198-6.67 14.867-14.867 14.867zm0-23.787c-4.919 0-8.92 4.002-8.92 8.92s4.001 8.92 8.92 8.92c4.918 0 8.92-4.002 8.92-8.92s-4.002-8.92-8.92-8.92z"/>
    </g>
</svg>
