<svg xmlns="http://www.w3.org/2000/svg" width="64" height="64" viewBox="0 0 64 64">
    <g fill="none" fill-rule="evenodd">
        <g transform="translate(.8 5.8)">
            <circle cx="28.2" cy="28.2" r="27.156" fill="#F1B565"/>
            <path fill="#383128" fill-rule="nonzero" d="M28.2 56.4C12.65 56.4 0 43.75 0 28.2 0 12.65 12.65 0 28.2 0c15.55 0 28.2 12.65 28.2 28.2 0 15.55-12.65 28.2-28.2 28.2zm0-54.311C13.802 2.089 2.089 13.802 2.089 28.2c0 14.398 11.713 26.111 26.111 26.111 14.398 0 26.111-11.713 26.111-26.111 0-14.398-11.713-26.111-26.111-26.111z"/>
        </g>
        <path fill="#383128" fill-rule="nonzero" d="M51.978 62.2H6.022a1.043 1.043 0 0 1-1.044-1.044V13.11c0-.577.467-1.044 1.044-1.044h45.956c.577 0 1.044.467 1.044 1.044v48.045c0 .577-.467 1.044-1.044 1.044zM7.067 60.111h43.866V14.156H7.067V60.11z"/>
        <g fill="#383128" fill-rule="nonzero">
            <path d="M26.42 62.2a3.6 3.6 0 0 1-3.616-3.449c-.14-.936-1.676-11.752-.79-27.938.019-.493-.133-.892-.42-1.197a1.54 1.54 0 0 0-1.093-.484c-5.911-.137-9.954-.185-10.923-.13-2.143.604-3.281-.028-3.859-.671-.872-.968-.855-2.389-.566-3.088.914-2.204 5.896-2.518 17.046-2.707.863-.015 1.728-.03 2.586-.047-.986-1.124-1.555-2.622-1.555-4.233 0-3.414 2.587-6.191 5.764-6.191s5.763 2.777 5.763 6.191c0 1.589-.553 3.069-1.514 4.188 19.727.136 19.73 2.116 19.73 3.2.008.128.064 1.8-1.19 2.805-.89.713-2.12.854-3.664.42-.27-.037-1.926.024-3.68.087-1.907.068-4.283.154-6.941.194a1.54 1.54 0 0 0-1.101.482c-.29.307-.443.708-.426 1.131.494 8.843.308 17.812-.537 25.988-.138 1.33 2.21 1.947 2.235 1.953a1.045 1.045 0 0 1-.491 2.03c-1.543-.37-4.083-1.672-3.823-4.198.835-8.07 1.018-16.923.532-25.609-.042-1.074.313-2.016.994-2.734a3.609 3.609 0 0 1 2.587-1.133 304.16 304.16 0 0 0 6.897-.193c3.183-.114 3.906-.128 4.322-.01.825.23 1.458.22 1.785-.034.27-.212.363-.6.396-.862-1.445-.716-8.607-1.435-19.814-1.435a1.043 1.043 0 0 1-1.044-1.045v-.598c0-.387.213-.742.555-.923 1.278-.677 2.104-2.132 2.104-3.704 0-2.262-1.648-4.103-3.674-4.103s-3.675 1.84-3.675 4.103c0 1.572.827 3.026 2.105 3.704.342.181.555.536.555.923v.602c0 .566-.452 1.028-1.017 1.044-1.54.042-3.135.068-4.727.095-5.683.097-14.272.241-15.166 1.449-.018.084-.036.621.221.88.27.27.929.275 1.81.014a.956.956 0 0 1 .208-.039c1.102-.094 6.722.013 11.242.115a3.61 3.61 0 0 1 2.563 1.138 3.619 3.619 0 0 1 .993 2.63l-.004.105c-.911 16.631.76 27.468.776 27.574.007.044.011.09.013.135.021.833.693 1.486 1.527 1.486a1.043 1.043 0 1 1 0 2.089z"/>
            <path d="M28.993 62.2a1.043 1.043 0 0 1-1.045-1.044V41.423a1.043 1.043 0 1 1 2.09 0v19.733c0 .577-.468 1.044-1.045 1.044zM39.793 24.6a1.046 1.046 0 0 1-.571-1.92c2.446-1.595 4.222-2.942 5.517-3.926.813-.617 1.401-1.064 1.83-1.319.51-.303.835-.56 1.043-.761-1.589.625-4.69 2.215-7.287 3.547-2.763 1.416-5.62 2.881-8.005 3.95a1.046 1.046 0 0 1-.852-1.907c2.334-1.046 5.166-2.498 7.903-3.901 7.784-3.991 9.19-4.613 10.087-3.678.327.313.665.91.601 1.644-.09 1.036-.882 1.984-2.422 2.902-.328.195-.904.632-1.634 1.187-1.248.946-3.132 2.376-5.64 4.013-.176.114-.374.169-.57.169zM47.801 54.367c-.26 0-.514-.097-.708-.276-.19-.043-.565-.08-.827-.107-1.083-.108-2.43-.24-3.128-1.162-4.034-5.327-6.894-9.265-8.741-12.043a1.045 1.045 0 0 1 1.74-1.157c1.823 2.74 4.658 6.646 8.665 11.938.199.199 1.193.298 1.672.346.989.1 1.844.184 2.243.915a1.045 1.045 0 0 1-.916 1.546zM42.675 57.42c-2.121-2.333-5.98-6.686-8.346-10.02a1.046 1.046 0 0 1 1.703-1.211c2.303 3.245 6.1 7.526 8.157 9.788l-1.514 1.443zM18.356 24.6c-.196 0-.394-.055-.57-.17-2.504-1.633-4.387-3.063-5.634-4.008-.732-.555-1.312-.995-1.64-1.191-1.492-.888-2.305-1.863-2.418-2.899-.086-.799.28-1.454.62-1.771.825-.927 2.125-.357 9.827 3.645 2.821 1.466 5.74 2.983 8.141 4.059a1.044 1.044 0 1 1-.852 1.907c-2.459-1.102-5.404-2.632-8.251-4.113-2.57-1.335-5.648-2.936-7.163-3.526.194.224.542.531 1.166.902.43.256 1.02.703 1.835 1.322 1.295.983 3.07 2.33 5.511 3.923a1.044 1.044 0 0 1-.572 1.92zM11.566 55.693a.986.986 0 0 1-.518-.144c-.475-.29-.661-.868-.394-1.357.246-.449.723-.844 1.328-1.344.492-.408 1.05-.87 1.366-1.287 2.338-3.087 5.98-8.096 8.443-11.798.32-.482.968-.613 1.448-.29.48.32.61.968.29 1.447-2.488 3.74-6.158 8.792-8.516 11.903-.46.61-1.118 1.154-1.697 1.635-.314.259-.74.613-.837.754a1.12 1.12 0 0 1-.913.481zM14.702 57.761a1.044 1.044 0 0 1-.773-1.747c.523-.575 5.185-5.727 7.953-9.629a1.045 1.045 0 0 1 1.704 1.21c-2.84 4-7.58 9.24-8.112 9.825-.205.226-.49.341-.772.341z"/>
        </g>
    </g>
</svg>
