<svg xmlns="http://www.w3.org/2000/svg" width="64" height="64" viewBox="0 0 64 64">
    <g fill="none" fill-rule="nonzero">
        <path fill="#232E38" d="M25 40h-2a1 1 0 0 1-1-1v-8a1 1 0 0 1 1-1h2c1.654 0 3 1.346 3 3v4c0 1.655-1.346 3-3 3zm-1-2h1c.551 0 1-.448 1-1v-4c0-.552-.449-1-1-1h-1v6z"/>
        <path fill="#E45544" d="M5 17h18v46H5z"/>
        <path fill="#3F291E" d="M23 64H5a1 1 0 0 1-1-1V17a1 1 0 0 1 1-1h18a1 1 0 0 1 1 1v46a1 1 0 0 1-1 1zM6 62h16V18H6v44z"/>
        <path fill="#ABCFD3" d="M5 17h18v4H5z"/>
        <path fill="#232E38" d="M23 22H5a1 1 0 0 1-1-1v-4a1 1 0 0 1 1-1h18a1 1 0 0 1 1 1v4a1 1 0 0 1-1 1zM6 20h16v-2H6v2z"/>
        <path fill="#ABCFD3" d="M23 43h1.858c2.652 0 5.196 1.054 7.071 2.929l14.142 14.142A10.001 10.001 0 0 0 53.142 63H55v-4a9.656 9.656 0 0 1-6.828-2.828L33.828 41.828A9.656 9.656 0 0 0 27 39h-4v4z"/>
        <path fill="#232E38" d="M55 64h-1.858c-2.938 0-5.7-1.145-7.778-3.222L31.222 46.636A8.945 8.945 0 0 0 24.858 44H23a1 1 0 0 1-1-1v-4a1 1 0 0 1 1-1h4a10.59 10.59 0 0 1 7.536 3.121l14.343 14.343A8.596 8.596 0 0 0 55 58a1 1 0 0 1 1 1v4a1 1 0 0 1-1 1zM24 42h.858c2.938 0 5.7 1.145 7.778 3.222l14.143 14.143a8.945 8.945 0 0 0 6.364 2.636H54v-2.046a10.583 10.583 0 0 1-6.536-3.076L33.122 42.535A8.602 8.602 0 0 0 27 40h-3v2z"/>
        <g fill="#FFF">
            <path d="M19 48H9a1 1 0 1 1 0-2h10a1 1 0 1 1 0 2z"/>
            <path d="M9 64a1 1 0 0 1-1-1V43a1 1 0 1 1 2 0v20a1 1 0 0 1-1 1zM19 64a1 1 0 0 1-1-1V43a1 1 0 1 1 2 0v20a1 1 0 0 1-1 1z"/>
            <path d="M19 52H9a1 1 0 1 1 0-2h10a1 1 0 1 1 0 2zM19 56H9a1 1 0 1 1 0-2h10a1 1 0 1 1 0 2zM19 60H9a1 1 0 1 1 0-2h10a1 1 0 1 1 0 2z"/>
        </g>
        <path fill="#ABCFD3" d="M9 39v-9a5 5 0 0 1 10 0v9H9z"/>
        <path fill="#232E38" d="M19 40H9a1 1 0 0 1-1-1v-9c0-3.309 2.691-6 6-6s6 2.691 6 6v9a1 1 0 0 1-1 1zm-9-2h8v-8c0-2.206-1.794-4-4-4s-4 1.794-4 4v8z"/>
        <g>
            <path fill="#ABCFD3" d="M5 39h18v4H5z"/>
            <path fill="#232E38" d="M23 44H5a1 1 0 0 1-1-1v-4a1 1 0 0 1 1-1h18a1 1 0 0 1 1 1v4a1 1 0 0 1-1 1zM6 42h16v-2H6v2z"/>
        </g>
        <g>
            <path fill="#59B0D3" d="M3 17l11-8 11 8z"/>
            <path fill="#232E38" d="M25.02 18a.067.067 0 0 0-.02 0H3a1 1 0 0 1-.588-1.808l11-8a.998.998 0 0 1 1.177 0l10.888 7.919A.999.999 0 0 1 25.02 18zM6 16.763h15.85L13.925 11 6 16.763z"/>
        </g>
        <path fill="#222" d="M59 64H1a1 1 0 1 1 0-2h58a1 1 0 1 1 0 2z"/>
    </g>
</svg>
