<svg xmlns="http://www.w3.org/2000/svg" width="64" height="64" viewBox="0 0 64 64">
    <g fill="none" fill-rule="evenodd">
        <path fill="#2A2135" fill-rule="nonzero" d="M19.574 34.77c-2.003 0-4-.685-5.608-2.05a8.591 8.591 0 0 1-2.067-2.586 1.045 1.045 0 0 1 1.853-.967 6.5 6.5 0 0 0 1.568 1.96c2.394 2.033 5.93 2.077 8.407.104a1.045 1.045 0 0 1 1.301 1.634 8.75 8.75 0 0 1-5.454 1.905zM27.624 26.293c-.068 0-.139-.006-.209-.02-5.474-1.112-9.297-5.773-9.297-11.337 0-1.09.152-2.174.454-3.218a1.045 1.045 0 0 1 2.007.579 9.55 9.55 0 0 0-.371 2.639c0 4.558 3.135 8.377 7.625 9.29a1.045 1.045 0 0 1-.209 2.067zM39.488 28a1.044 1.044 0 0 1-1.02-1.276c1.228-5.384 5.917-9.144 11.403-9.144.887 0 1.768.1 2.625.3a1.046 1.046 0 0 1-.471 2.035 9.59 9.59 0 0 0-2.154-.245c-4.505 0-8.357 3.092-9.367 7.518-.11.484-.54.812-1.016.812zM45.773 53.431a1.045 1.045 0 0 1-.994-1.366c.307-.954.463-1.95.463-2.962 0-4.557-3.128-8.45-7.607-9.468a1.045 1.045 0 0 1 .463-2.037c5.436 1.236 9.233 5.966 9.233 11.505 0 1.23-.191 2.443-.566 3.605a1.043 1.043 0 0 1-.992.723zM15.46 46.537c-.842 0-1.68-.091-2.497-.27a1.044 1.044 0 1 1 .446-2.04 9.62 9.62 0 0 0 2.05.22c4.578 0 8.543-3.287 9.426-7.817a1.043 1.043 0 1 1 2.05.4c-1.073 5.508-5.9 9.507-11.475 9.507zM32.955 24.63c-.318 0-.63-.144-.837-.417-2.589-3.454-2.458-8.15.317-11.42.404-.475.857-.91 1.348-1.293a1.043 1.043 0 1 1 1.285 1.647c-.38.295-.729.63-1.04.998-2.141 2.522-2.24 6.146-.24 8.814a1.044 1.044 0 0 1-.833 1.671zM51.997 34.731c-.334 0-.663-.16-.864-.457a6.544 6.544 0 0 0-1.183-1.315c-2.349-1.994-5.73-2.091-8.224-.24a1.044 1.044 0 1 1-1.246-1.676c3.279-2.436 7.727-2.303 10.823.323A8.682 8.682 0 0 1 52.86 33.1a1.044 1.044 0 0 1-.863 1.631zM30.015 53.01a1.043 1.043 0 0 1-.506-1.96 6.777 6.777 0 0 0 1.9-1.556c2.016-2.375 2.169-5.833.369-8.408a1.045 1.045 0 0 1 1.714-1.195c2.34 3.352 2.139 7.858-.491 10.956a8.884 8.884 0 0 1-2.483 2.034c-.16.087-.333.129-.503.129z"/>
        <path fill="#DD5089" d="M11.35 21.05a4.305 4.305 0 0 1 4.642 3.942 4.305 4.305 0 1 1-8.583.7 4.306 4.306 0 0 1 3.94-4.642z"/>
        <path fill="#2A2135" fill-rule="nonzero" d="M11.696 30.693c-2.762 0-5.103-2.158-5.328-4.915a5.358 5.358 0 0 1 4.897-5.768c2.95-.245 5.531 1.995 5.769 4.896a5.318 5.318 0 0 1-1.255 3.899 5.317 5.317 0 0 1-4.083 1.888zm.01-8.613a3.265 3.265 0 0 0-3.256 3.528c.144 1.77 1.72 3.124 3.517 2.985a3.265 3.265 0 0 0 2.984-3.517 3.275 3.275 0 0 0-3.245-2.996z"/>
        <path fill="#DD5089" d="M52.833 33.631a4.303 4.303 0 1 1 .7 8.578 4.303 4.303 0 0 1-.7-8.578z"/>
        <path fill="#2A2135" fill-rule="nonzero" d="M53.179 43.269c-2.76 0-5.1-2.158-5.326-4.913a5.355 5.355 0 0 1 4.894-5.766c2.945-.243 5.53 1.994 5.767 4.894a5.354 5.354 0 0 1-5.335 5.785zm.01-8.608a3.262 3.262 0 0 0-3.251 3.524 3.276 3.276 0 0 0 3.512 2.982 3.262 3.262 0 0 0 2.981-3.513 3.273 3.273 0 0 0-3.243-2.993z"/>
        <path fill="#81D4EF" d="M22.478 12.717a5.514 5.514 0 0 0 5.503-5.503 5.514 5.514 0 0 0-5.503-5.503 5.514 5.514 0 0 0-5.503 5.503 5.515 5.515 0 0 0 5.503 5.503z"/>
        <path fill="#232E38" fill-rule="nonzero" d="M22.48 13.762a6.555 6.555 0 0 1-6.548-6.548A6.555 6.555 0 0 1 22.479.667a6.556 6.556 0 0 1 6.548 6.547 6.556 6.556 0 0 1-6.548 6.548zm0-11.006c-2.46 0-4.46 2-4.46 4.458 0 2.459 2 4.459 4.46 4.459 2.458 0 4.458-2 4.458-4.459a4.465 4.465 0 0 0-4.459-4.458z"/>
        <path fill="#DD5089" d="M38.41 6.139a4.56 4.56 0 1 1 .742 9.085 4.56 4.56 0 0 1-.742-9.085z"/>
        <path fill="#2A2135" fill-rule="nonzero" d="M38.776 16.284c-2.894 0-5.345-2.26-5.58-5.146a5.611 5.611 0 0 1 5.128-6.04c3.087-.25 5.793 2.088 6.042 5.126a5.61 5.61 0 0 1-5.59 6.06zm.01-9.117a3.518 3.518 0 0 0-3.506 3.8 3.527 3.527 0 0 0 3.788 3.217 3.517 3.517 0 0 0 3.216-3.788 3.531 3.531 0 0 0-3.498-3.229z"/>
        <path fill="#9F85E5" d="M57.1 27.198a5.525 5.525 0 0 0 5.515-5.515 5.525 5.525 0 0 0-5.514-5.515 5.525 5.525 0 0 0-5.515 5.515 5.525 5.525 0 0 0 5.515 5.515z"/>
        <path fill="#2A2135" fill-rule="nonzero" d="M57.1 28.242a6.566 6.566 0 0 1-6.559-6.559 6.566 6.566 0 0 1 6.56-6.56 6.566 6.566 0 0 1 6.559 6.56 6.566 6.566 0 0 1-6.56 6.56zm0-11.03a4.475 4.475 0 0 0-4.47 4.47 4.475 4.475 0 0 0 4.47 4.47 4.475 4.475 0 0 0 4.47-4.47 4.475 4.475 0 0 0-4.47-4.47z"/>
        <g>
            <path fill="#81D4EF" d="M42.164 62.289a5.579 5.579 0 0 0 5.568-5.568 5.578 5.578 0 0 0-5.568-5.568 5.579 5.579 0 0 0-5.568 5.568 5.579 5.579 0 0 0 5.568 5.568z"/>
            <path fill="#232E38" fill-rule="nonzero" d="M42.163 63.333a6.62 6.62 0 0 1-6.611-6.612c0-3.646 2.966-6.613 6.61-6.613a6.62 6.62 0 0 1 6.613 6.613 6.62 6.62 0 0 1-6.612 6.612zm0-11.136a4.528 4.528 0 0 0-4.523 4.525 4.528 4.528 0 0 0 4.523 4.523 4.529 4.529 0 0 0 4.523-4.523 4.529 4.529 0 0 0-4.523-4.525z"/>
        </g>
        <g>
            <path fill="#DD5089" d="M25.408 49.104a4.462 4.462 0 1 1 .728 8.895 4.462 4.462 0 0 1-.728-8.895z"/>
            <path fill="#2A2135" fill-rule="nonzero" d="M25.766 59.058c-2.844 0-5.251-2.222-5.483-5.059a5.474 5.474 0 0 1 1.29-4.012 5.469 5.469 0 0 1 3.75-1.924c3.043-.25 5.693 2.054 5.937 5.04a5.474 5.474 0 0 1-1.29 4.012 5.469 5.469 0 0 1-4.204 1.943zm.01-8.924a3.4 3.4 0 0 0-2.61 1.206 3.402 3.402 0 0 0-.8 2.491 3.43 3.43 0 0 0 3.684 3.128 3.4 3.4 0 0 0 2.327-1.195c.59-.696.874-1.581.8-2.49a3.433 3.433 0 0 0-3.401-3.14z"/>
        </g>
        <g>
            <path fill="#9F85E5" d="M8.224 48.187a5.523 5.523 0 0 0 5.512-5.513 5.523 5.523 0 0 0-5.512-5.512 5.523 5.523 0 0 0-5.513 5.512 5.523 5.523 0 0 0 5.513 5.513z"/>
            <path fill="#2A2135" fill-rule="nonzero" d="M8.224 49.231a6.564 6.564 0 0 1-6.557-6.557 6.564 6.564 0 0 1 6.557-6.557 6.564 6.564 0 0 1 6.557 6.557 6.564 6.564 0 0 1-6.557 6.557zm0-11.026a4.473 4.473 0 0 0-4.468 4.468 4.473 4.473 0 0 0 4.468 4.468 4.473 4.473 0 0 0 4.468-4.468 4.472 4.472 0 0 0-4.468-4.468z"/>
        </g>
        <g>
            <path fill="#F1B565" d="M26.825 26.092a8.366 8.366 0 0 1 11.83 11.829 8.366 8.366 0 0 1-11.83-11.83z"/>
            <path fill="#383128" fill-rule="nonzero" d="M32.74 41.415a9.349 9.349 0 0 1-6.653-2.756c-3.67-3.669-3.67-9.638 0-13.306a9.349 9.349 0 0 1 6.653-2.755c2.513 0 4.876.979 6.653 2.755 3.67 3.67 3.67 9.638 0 13.306a9.344 9.344 0 0 1-6.653 2.756zm0-16.728a7.274 7.274 0 0 0-5.176 2.143c-2.854 2.854-2.854 7.498 0 10.353a7.274 7.274 0 0 0 5.176 2.143 7.274 7.274 0 0 0 5.176-2.143c2.854-2.855 2.854-7.499 0-10.353a7.274 7.274 0 0 0-5.176-2.143z"/>
        </g>
    </g>
</svg>
