<svg xmlns="http://www.w3.org/2000/svg" width="64" height="64" viewBox="0 0 64 64">
    <g fill="none" fill-rule="nonzero">
        <path fill="#9F85E5" d="M5.977 20.155h4.178v12.533H5.977z"/>
        <path fill="#2A2135" d="M10.156 33.733H5.978a1.044 1.044 0 0 1-1.045-1.044V20.156c0-.578.468-1.045 1.045-1.045h4.178c.576 0 1.044.467 1.044 1.045v12.533c0 .577-.468 1.044-1.044 1.044zm-3.134-2.089h2.09V21.2h-2.09v10.444z"/>
        <path fill="#9F85E5" d="M10.155 20.155h4.178v12.533h-4.178z"/>
        <path fill="#2A2135" d="M14.333 33.733h-4.177A1.044 1.044 0 0 1 9.11 32.69V20.156c0-.578.468-1.045 1.045-1.045h4.177c.577 0 1.045.467 1.045 1.045v12.533c0 .577-.468 1.044-1.045 1.044zM11.2 31.644h2.089V21.2H11.2v10.444z"/>
        <path fill="#232E38" d="M20.6 62.978a1.045 1.045 0 0 1-.99-1.376l4.178-12.533a1.043 1.043 0 1 1 1.981.661l-4.178 12.533a1.045 1.045 0 0 1-.991.715zM39.4 62.978c-.438 0-.845-.277-.991-.715L34.23 49.73a1.044 1.044 0 1 1 1.981-.661l4.178 12.533a1.044 1.044 0 0 1-.99 1.376z"/>
        <path fill="#E45544" d="M41.725 21.99l-6.273-6.273.785-.784a4.437 4.437 0 0 1 6.273 6.273l-.785.784z"/>
        <path fill="#3F291E" d="M41.726 23.034c-.267 0-.535-.102-.738-.306l-6.273-6.272a1.042 1.042 0 0 1 0-1.477l.784-.784a5.442 5.442 0 0 1 3.874-1.604c1.464 0 2.84.569 3.875 1.604a5.487 5.487 0 0 1 0 7.75l-.785.783a1.041 1.041 0 0 1-.737.306zm-4.796-7.316l4.796 4.795.045-.045a3.396 3.396 0 0 0 0-4.796c-1.282-1.282-3.515-1.282-4.795 0l-.046.046z"/>
        <path fill="#ABCFD3" d="M1.8 61.933l4.178-25.066h4.178z"/>
        <path fill="#232E38" d="M1.8 62.978a1.045 1.045 0 0 1-1.03-1.216l4.177-25.067c.085-.503.52-.873 1.03-.873h4.179a1.044 1.044 0 0 1 .99 1.375L2.792 62.263c-.145.435-.55.715-.991.715zM6.862 37.91L5.018 48.975 8.707 37.91H6.862z"/>
        <path fill="#ABCFD3" d="M58.2 61.933l-8.356-25.066h4.178z"/>
        <path fill="#232E38" d="M58.2 62.978c-.44 0-.846-.28-.99-.715l-8.356-25.066a1.043 1.043 0 0 1 .99-1.375h4.178c.511 0 .946.37 1.03.873l4.144 24.865a1.044 1.044 0 0 1-.976 1.417c-.005.007-.014 0-.02 0zM51.293 37.91l3.688 11.064-1.843-11.064h-1.845z"/>
        <g>
            <path fill="#ABCFD3" d="M54.022 32.689h-8.355v-1.045a3.133 3.133 0 0 1 3.133-3.133h2.089a3.133 3.133 0 0 1 3.133 3.133v1.045z"/>
            <path fill="#232E38" d="M54.022 33.733h-8.355a1.044 1.044 0 0 1-1.045-1.044v-1.045a4.182 4.182 0 0 1 4.178-4.177h2.089a4.182 4.182 0 0 1 4.178 4.177v1.045c0 .577-.468 1.044-1.045 1.044zm-7.31-2.089h6.266a2.091 2.091 0 0 0-2.09-2.088H48.8a2.091 2.091 0 0 0-2.089 2.088z"/>
        </g>
        <path fill="#232E38" d="M49.844 29.556A1.044 1.044 0 0 1 48.8 28.51v-4.178c0-.277.11-.543.306-.738l3.44-3.44-6.88-6.878-2.394 2.395a1.043 1.043 0 1 1-1.477-1.477l3.133-3.133a1.043 1.043 0 0 1 1.477 0l8.356 8.355a1.043 1.043 0 0 1 0 1.477l-3.872 3.872v3.745c0 .578-.468 1.045-1.045 1.045z"/>
        <g>
            <path fill="#FFF" d="M20.6 32.689H1.8v4.178h17.756z"/>
            <path fill="#232E38" d="M19.556 37.911H1.8a1.044 1.044 0 0 1-1.044-1.044v-4.178c0-.578.467-1.045 1.044-1.045h18.8a1.043 1.043 0 0 1 1.013 1.298l-1.044 4.177a1.043 1.043 0 0 1-1.013.792zM2.844 35.822H18.74l.522-2.089H2.844v2.09z"/>
            <g>
                <path fill="#FFF" d="M39.4 32.689l1.044 4.178H58.2v-4.178z"/>
                <path fill="#232E38" d="M58.2 37.911H40.444c-.479 0-.897-.327-1.013-.792l-1.044-4.177a1.042 1.042 0 0 1 1.013-1.298h18.8c.577 0 1.044.467 1.044 1.045v4.178c0 .577-.467 1.044-1.044 1.044zm-16.94-2.089h15.896v-2.089H40.738l.522 2.09z"/>
            </g>
        </g>
        <g>
            <path fill="#E45544" d="M32.876 49.4h-5.752c-5.437 0-9.424-5.108-8.106-10.382l3.275-13.102a2.09 2.09 0 0 1 2.026-1.583h11.36c.96 0 1.795.653 2.027 1.583l3.275 13.102c1.32 5.274-2.67 10.382-8.105 10.382z"/>
            <path fill="#3F291E" d="M32.876 50.444h-5.752a9.344 9.344 0 0 1-7.41-3.614 9.344 9.344 0 0 1-1.71-8.066l3.275-13.102a3.133 3.133 0 0 1 3.041-2.373h11.36c1.441 0 2.691.976 3.041 2.372l3.275 13.103a9.342 9.342 0 0 1-1.71 8.066 9.344 9.344 0 0 1-7.41 3.614zM24.32 25.378c-.48 0-.897.326-1.013.791l-3.275 13.102a7.27 7.27 0 0 0 1.33 6.273 7.264 7.264 0 0 0 5.762 2.812h5.752a7.267 7.267 0 0 0 5.764-2.812 7.265 7.265 0 0 0 1.33-6.273l-3.276-13.103a1.045 1.045 0 0 0-1.014-.79H24.32z"/>
        </g>
    </g>
</svg>
