<svg xmlns="http://www.w3.org/2000/svg" width="64" height="64" viewBox="0 0 64 64">
    <g fill="none" fill-rule="nonzero">
        <path fill="#FFF" d="M24.689 62.022H60.2a2.088 2.088 0 0 0 2.089-2.089V16.067a2.088 2.088 0 0 0-2.089-2.09H24.689v48.045z"/>
        <path fill="#0E1011" d="M60.2 63.067H24.689a1.043 1.043 0 0 1-1.045-1.045V13.978c0-.578.467-1.045 1.045-1.045H60.2a3.137 3.137 0 0 1 3.133 3.134v43.866a3.137 3.137 0 0 1-3.133 3.134zm-34.467-2.09H60.2c.577 0 1.044-.467 1.044-1.044V16.067c0-.577-.467-1.045-1.044-1.045H25.733v45.956z"/>
        <path fill="#EFEAE1" d="M3.8 62.022h20.889V13.978H3.8a2.088 2.088 0 0 0-2.089 2.089v43.866c0 1.154.935 2.09 2.089 2.09z"/>
        <path fill="#383128" d="M24.689 63.067H3.8a3.137 3.137 0 0 1-3.133-3.134V16.067A3.137 3.137 0 0 1 3.8 12.933h20.889c.577 0 1.044.467 1.044 1.045v48.044c0 .578-.467 1.045-1.044 1.045zM3.8 15.022c-.577 0-1.044.468-1.044 1.045v43.866c0 .577.467 1.045 1.044 1.045h19.844V15.022H3.8z"/>
        <g fill="#232E38">
            <path d="M45.578 23.378H30.956a1.043 1.043 0 1 1 0-2.09h14.622a1.043 1.043 0 1 1 0 2.09zM56.022 27.556H30.956a1.043 1.043 0 1 1 0-2.09h25.066a1.043 1.043 0 1 1 0 2.09zM18.422 50.533H7.978a1.043 1.043 0 1 1 0-2.089h10.444a1.043 1.043 0 1 1 0 2.09zM18.422 46.356H7.978a1.043 1.043 0 1 1 0-2.09h10.444a1.043 1.043 0 1 1 0 2.09zM18.422 54.711H7.978a1.043 1.043 0 1 1 0-2.089h10.444a1.043 1.043 0 1 1 0 2.09zM56.022 31.733H30.956a1.043 1.043 0 1 1 0-2.089h25.066a1.043 1.043 0 1 1 0 2.09zM56.022 35.911H30.956a1.043 1.043 0 1 1 0-2.089h25.066a1.043 1.043 0 1 1 0 2.09zM56.022 50.533H30.956a1.043 1.043 0 1 1 0-2.089h25.066a1.043 1.043 0 1 1 0 2.09zM56.022 54.711H30.956a1.043 1.043 0 1 1 0-2.089h25.066a1.043 1.043 0 1 1 0 2.09z"/>
        </g>
        <g>
            <path fill="#81D4EF" d="M7.977 22.333h10.444v12.533H7.977z"/>
            <path fill="#232E38" d="M18.422 35.911H7.978a1.043 1.043 0 0 1-1.045-1.044V22.333c0-.577.467-1.044 1.045-1.044h10.444c.578 0 1.045.467 1.045 1.044v12.534c0 .577-.467 1.044-1.045 1.044zm-9.4-2.089h8.356V23.378H9.022v10.444z"/>
        </g>
        <path fill="#232E38" d="M17.378 33.822c-.568-.501-1.506-1.263-2.644-1.465a.335.335 0 0 1-.28-.344c.008-.185.007-.38.007-.584 0-.468.562-1.03.593-1.686.187-.389.294-.775.294-1.074 0-.196-.048-.325-.132-.41.046-.245.084-.503.132-.77.193-1.069-.18-1.84-1.12-2.174-.34-.12-1.746-.363-2.27-.872-.19-.184-.06.851-.232.929-.92.413-1.285 1.058-1.095 2.118.048.266.086.524.132.768-.084.086-.132.215-.132.41 0 .3.107.686.294 1.075.03.656.593 1.186.593 1.686 0 .204 0 .4.008.584a.336.336 0 0 1-.281.344c-1.138.201-2.076.963-2.644 1.465l4.599 1.045 4.178-1.045z"/>
    </g>
</svg>
