<svg xmlns="http://www.w3.org/2000/svg" width="132" height="20" viewBox="0 0 132 20">
    <g fill="none" fill-rule="evenodd">
        <path fill="#4A4A4A" d="M2.98 13.87c-.613-.633-.92-1.563-.92-2.79V6.56H.48a.46.46 0 0 1-.34-.14.463.463 0 0 1-.14-.34V4.9c0-.133.047-.246.14-.34a.464.464 0 0 1 .34-.14h1.58V1.1c0-.147.047-.263.14-.35a.48.48 0 0 1 .34-.13H4.2c.147 0 .263.043.35.13.087.087.13.203.13.35v3.32h2.5c.133 0 .247.047.34.14.093.094.14.207.14.34v1.18a.463.463 0 0 1-.14.34.46.46 0 0 1-.34.14h-2.5v4.3c0 .573.1 1.007.3 1.3.2.293.527.44.98.44h1.4a.47.47 0 0 1 .35.13c.087.087.13.203.13.35v1.26a.478.478 0 0 1-.13.34.45.45 0 0 1-.35.14H5.72c-1.213 0-2.127-.316-2.74-.95M10.58 13.82c-.707-.8-1.06-1.9-1.06-3.3V4.9c0-.146.047-.263.14-.35a.484.484 0 0 1 .34-.13h1.8c.134 0 .247.047.34.14.093.093.14.207.14.34v5.5c0 1.64.714 2.46 2.14 2.46.693 0 1.243-.22 1.65-.66.407-.44.61-1.04.61-1.8V4.9c0-.146.047-.263.14-.35a.484.484 0 0 1 .34-.13h1.78c.147 0 .264.044.35.13.087.087.13.204.13.35v9.44a.48.48 0 0 1-.13.34.45.45 0 0 1-.35.14h-1.66a.46.46 0 0 1-.34-.14.464.464 0 0 1-.14-.34v-.82c-.733 1-1.84 1.5-3.32 1.5-1.227 0-2.193-.4-2.9-1.2M22.2 14.68a.464.464 0 0 1-.14-.34V4.92a.49.49 0 0 1 .14-.36.464.464 0 0 1 .34-.14h1.64a.49.49 0 0 1 .36.14.49.49 0 0 1 .14.36v.82c.666-.88 1.626-1.32 2.88-1.32h.84c.147 0 .263.044.35.13.087.087.13.204.13.35v1.46a.48.48 0 0 1-.13.34.452.452 0 0 1-.35.14h-1.58c-.627 0-1.12.18-1.48.54-.36.36-.54.854-.54 1.48v5.48a.464.464 0 0 1-.14.34.46.46 0 0 1-.34.14h-1.78a.46.46 0 0 1-.34-.14"/>
        <path fill="#F05D0D" d="M30.58 14.68a.464.464 0 0 1-.14-.34V4.9c0-.146.047-.263.14-.35a.484.484 0 0 1 .34-.13h1.7c.133 0 .247.047.34.14.093.094.14.207.14.34v9.44a.464.464 0 0 1-.14.34.46.46 0 0 1-.34.14h-1.7a.46.46 0 0 1-.34-.14"/>
        <path fill="#4A4A4A" d="M35.88 14.68a.464.464 0 0 1-.14-.34V4.9c0-.146.047-.263.14-.35a.484.484 0 0 1 .34-.13h1.66c.146 0 .263.044.35.13.087.087.13.204.13.35v.82c.813-1 1.927-1.5 3.34-1.5 1.226 0 2.2.4 2.92 1.2.72.8 1.08 1.9 1.08 3.3v5.62a.484.484 0 0 1-.13.34.452.452 0 0 1-.35.14h-1.8a.46.46 0 0 1-.34-.14.46.46 0 0 1-.14-.34v-5.5c0-.773-.19-1.376-.57-1.81-.38-.433-.924-.65-1.63-.65-.68 0-1.227.22-1.64.66-.413.44-.62 1.04-.62 1.8v5.5a.48.48 0 0 1-.13.34.452.452 0 0 1-.35.14h-1.78a.46.46 0 0 1-.34-.14M54.54 11.9c.373-.48.58-1.066.62-1.76.013-.107.02-.32.02-.64s-.007-.533-.02-.64c-.04-.693-.247-1.28-.62-1.76-.374-.48-.934-.72-1.68-.72-1.44 0-2.2.88-2.28 2.64l-.02.48c0 2.08.767 3.12 2.3 3.12.746 0 1.306-.24 1.68-.72m-4.48 6.73c-.733-.394-1.253-.843-1.56-1.35-.307-.507-.46-.94-.46-1.3 0-.134.046-.244.14-.33a.48.48 0 0 1 .34-.13h1.78c.12 0 .223.03.31.09.086.06.157.17.21.33.146.347.366.643.66.89.293.246.747.37 1.36.37.8 0 1.387-.177 1.76-.53.373-.353.56-.97.56-1.85v-1.36c-.72.854-1.74 1.28-3.06 1.28-1.387 0-2.43-.42-3.13-1.26-.7-.84-1.077-1.987-1.13-3.44l-.02-.54.02-.54c.053-1.427.433-2.573 1.14-3.44.706-.867 1.747-1.3 3.12-1.3.707 0 1.326.133 1.86.4.533.267.973.627 1.32 1.08v-.78a.497.497 0 0 1 .5-.5h1.64c.133 0 .246.047.34.14a.49.49 0 0 1 .14.36l.02 9.64c0 1.48-.414 2.627-1.24 3.44-.827.813-2.074 1.22-3.74 1.22-1.187 0-2.147-.197-2.88-.59M60.44 15.83a.45.45 0 0 1-.14-.35v-1.34c0-.146.046-.263.14-.35a.484.484 0 0 1 .34-.13h11.74a.49.49 0 0 1 .36.14c.093.093.14.207.14.34v1.34a.464.464 0 0 1-.14.34.49.49 0 0 1-.36.14H60.78a.48.48 0 0 1-.34-.13M77.36 13.87c-.614-.633-.92-1.563-.92-2.79V6.56h-1.58a.46.46 0 0 1-.34-.14.463.463 0 0 1-.14-.34V4.9c0-.133.046-.246.14-.34a.464.464 0 0 1 .34-.14h1.58V1.1c0-.147.046-.263.14-.35a.48.48 0 0 1 .34-.13h1.66c.146 0 .262.043.35.13.086.087.13.203.13.35v3.32h2.5c.132 0 .246.047.34.14.092.094.14.207.14.34v1.18a.463.463 0 0 1-.14.34.46.46 0 0 1-.34.14h-2.5v4.3c0 .573.1 1.007.3 1.3.2.293.526.44.98.44h1.4a.47.47 0 0 1 .35.13c.086.087.13.203.13.35v1.26a.478.478 0 0 1-.13.34.45.45 0 0 1-.35.14H80.1c-1.214 0-2.128-.316-2.74-.95M89.5 12.38c.466-.48.7-1.173.7-2.08v-.4l-2 .32c-1.534.24-2.3.753-2.3 1.54 0 .427.176.757.53.99.352.234.776.35 1.27.35.733 0 1.332-.24 1.8-.72m-4.35 2.23c-.568-.273-1.014-.643-1.34-1.11a2.626 2.626 0 0 1-.49-1.54c0-.907.367-1.64 1.1-2.2.733-.56 1.74-.94 3.02-1.14l2.74-.4V7.8c0-.573-.148-1.006-.44-1.3-.293-.293-.76-.44-1.4-.44-.44 0-.794.08-1.06.24-.267.16-.484.323-.65.49l-.33.33c-.053.16-.153.24-.3.24h-1.56a.442.442 0 0 1-.31-.12.414.414 0 0 1-.13-.32c.013-.333.177-.71.49-1.13.313-.42.797-.786 1.45-1.1.653-.313 1.46-.47 2.42-.47 1.573 0 2.72.353 3.44 1.06.72.707 1.08 1.633 1.08 2.78v6.28a.48.48 0 0 1-.13.34.452.452 0 0 1-.35.14h-1.66a.46.46 0 0 1-.34-.14.464.464 0 0 1-.14-.34v-.78c-.294.427-.708.777-1.24 1.05-.533.273-1.2.41-2 .41-.68 0-1.303-.137-1.87-.41M95.6 14.68a.464.464 0 0 1-.14-.34V1.1c0-.147.047-.263.14-.35a.48.48 0 0 1 .34-.13h1.68c.147 0 .263.043.35.13.087.087.13.203.13.35v13.24a.48.48 0 0 1-.13.34.452.452 0 0 1-.35.14h-1.68a.46.46 0 0 1-.34-.14M107.44 8.7v-.04c0-.787-.197-1.417-.59-1.89-.393-.473-.93-.71-1.61-.71s-1.215.237-1.6.71c-.388.473-.58 1.103-.58 1.89v.04h4.38zm-5.73 5.04c-.874-.853-1.337-2.066-1.39-3.64l-.02-.5c0-1.667.436-2.98 1.31-3.94.873-.96 2.082-1.44 3.63-1.44 1.587 0 2.81.48 3.67 1.44.86.96 1.29 2.24 1.29 3.84v.42a.463.463 0 0 1-.14.34.49.49 0 0 1-.36.14h-6.64v.16c.025.747.23 1.364.61 1.85.38.487.903.73 1.57.73.76 0 1.38-.306 1.86-.92.12-.146.213-.236.28-.27.066-.033.18-.05.34-.05h1.76c.12 0 .222.033.31.1.086.067.13.16.13.28 0 .32-.19.697-.57 1.13-.38.434-.924.81-1.63 1.13-.707.32-1.528.48-2.46.48-1.494 0-2.678-.426-3.55-1.28zM112.459 14.68a.464.464 0 0 1-.14-.34V4.9c0-.146.047-.263.14-.35a.484.484 0 0 1 .34-.13h1.66c.146 0 .263.044.35.13.087.087.13.204.13.35v.82c.813-1 1.927-1.5 3.34-1.5 1.226 0 2.2.4 2.92 1.2.72.8 1.08 1.9 1.08 3.3v5.62a.484.484 0 0 1-.13.34.452.452 0 0 1-.35.14h-1.8a.46.46 0 0 1-.34-.14.46.46 0 0 1-.14-.34v-5.5c0-.773-.19-1.376-.57-1.81-.38-.433-.924-.65-1.63-.65-.68 0-1.227.22-1.64.66-.413.44-.62 1.04-.62 1.8v5.5a.48.48 0 0 1-.13.34.452.452 0 0 1-.35.14h-1.78a.46.46 0 0 1-.34-.14M126.799 13.87c-.613-.633-.92-1.563-.92-2.79V6.56h-1.58a.46.46 0 0 1-.34-.14.463.463 0 0 1-.14-.34V4.9c0-.133.047-.246.14-.34a.464.464 0 0 1 .34-.14h1.58V1.1c0-.147.047-.263.14-.35a.48.48 0 0 1 .34-.13h1.66c.147 0 .263.043.35.13.087.087.13.203.13.35v3.32h2.5c.133 0 .247.047.34.14.093.094.14.207.14.34v1.18a.463.463 0 0 1-.14.34.46.46 0 0 1-.34.14h-2.5v4.3c0 .573.1 1.007.3 1.3.2.293.527.44.98.44h1.4a.47.47 0 0 1 .35.13c.087.087.13.203.13.35v1.26a.478.478 0 0 1-.13.34.45.45 0 0 1-.35.14h-1.64c-1.213 0-2.127-.316-2.74-.95"/>
        <path fill="#F05D0D" d="M33.27 1.5a1.5 1.5 0 1 1-2.999.001 1.5 1.5 0 0 1 2.998-.001"/>
    </g>
</svg>
